<svg width="227" height="49" viewBox="0 0 227 49" fill="none" xmlns="http://www.w3.org/2000/svg">
<g clip-path="url(#clip0_465_355)">
<path d="M225.029 32.7416C224.328 32.7416 223.759 33.3219 223.759 34.0364C223.759 34.7509 224.328 35.3312 225.029 35.3312C225.73 35.3312 226.299 34.7509 226.299 34.0364C226.299 33.3219 225.73 32.7416 225.029 32.7416ZM225.029 35.1259C224.438 35.1259 223.96 34.6358 223.96 34.0364C223.96 33.4341 224.441 32.9469 225.029 32.9469C225.62 32.9469 226.101 33.4369 226.101 34.0364C226.101 34.6359 225.62 35.1259 225.029 35.1259ZM225.443 33.8147C225.443 33.5792 225.279 33.4396 225.037 33.4396H224.631V34.6195H224.83V34.1924H225.048L225.257 34.6195H225.472L225.241 34.1487C225.365 34.0912 225.443 33.9761 225.443 33.8147ZM225.029 34.009H224.833V33.6176H225.029C225.163 33.6176 225.244 33.686 225.244 33.812C225.244 33.9406 225.161 34.009 225.029 34.009ZM71.9585 19.6375V16.5059H67.2477V35.1368H71.9585V23.9654C71.9585 21.9424 73.2316 20.9487 75.2164 20.9487H77.7948V16.5059H75.5924C73.8682 16.5059 72.3695 17.4229 71.9585 19.6375ZM82.2075 9.13672C80.596 9.13672 79.3606 10.4343 79.3606 12.0767C79.3606 13.6809 80.596 14.9784 82.2075 14.9784C83.819 14.9784 85.0544 13.6809 85.0544 12.0767C85.0544 10.4342 83.819 9.13672 82.2075 9.13672ZM79.8574 35.1369H84.5576V16.5059H79.8574V35.1369ZM106.946 25.8213C106.946 31.1401 102.716 35.4517 97.4976 35.4517C95.3919 35.4517 93.4823 34.7482 91.9514 33.5601V40.6063H87.2513V16.5059H91.9514V18.0826C93.4823 16.8946 95.3919 16.191 97.4976 16.191C102.716 16.191 106.946 20.5025 106.946 25.8213ZM102.217 25.8213C102.217 22.9334 99.9175 20.5901 97.084 20.5901C94.2505 20.5901 91.9515 22.9334 91.9515 25.8213C91.9515 28.7094 94.2505 31.0526 97.084 31.0526C99.9175 31.0526 102.217 28.7121 102.217 25.8213ZM188.637 24.1871L185.895 23.4206C184.09 22.9415 183.389 22.3776 183.389 21.4059C183.389 20.4587 184.377 19.7963 185.79 19.7963C187.135 19.7963 188.191 20.6941 188.191 21.8438V21.9505H192.523V21.8438C192.523 18.463 189.819 16.191 185.79 16.191C181.802 16.191 178.904 18.4603 178.904 21.5892C178.904 24.0228 180.485 25.8568 183.246 26.6178L185.873 27.3488C187.869 27.9126 188.61 28.5368 188.61 29.6565C188.61 30.8363 187.538 31.6301 185.943 31.6301C184.28 31.6301 183.16 30.557 183.16 28.9639V28.8571H178.562V28.9639C178.562 32.7853 181.581 35.457 185.905 35.457C190.071 35.457 193.095 32.8483 193.095 29.2568C193.095 27.4939 192.322 25.189 188.637 24.1871ZM123.62 16.5059H128.32V35.1368H123.62V33.56C122.089 34.7481 120.179 35.4516 118.073 35.4516C112.855 35.4516 108.625 31.1401 108.625 25.8213C108.625 20.5024 112.855 16.191 118.073 16.191C120.179 16.191 122.089 16.8945 123.62 18.0825V16.5059ZM123.62 25.8213C123.62 22.9306 121.32 20.5901 118.487 20.5901C115.653 20.5901 113.354 22.9334 113.354 25.8213C113.354 28.7094 115.653 31.0526 118.487 31.0526C121.323 31.0526 123.62 28.7121 123.62 25.8213ZM145.291 9.87581H149.991V35.1396H145.291V33.5628C143.76 34.7509 141.851 35.4544 139.745 35.4544C134.526 35.4544 130.296 31.1429 130.296 25.824C130.296 20.5051 134.526 16.1937 139.745 16.1937C141.851 16.1937 143.76 16.8972 145.291 18.0853V9.87581ZM145.291 25.8213C145.291 22.9334 142.992 20.5901 140.158 20.5901C137.325 20.5901 135.026 22.9334 135.026 25.8213C135.026 28.7094 137.322 31.0526 140.158 31.0526C142.992 31.0526 145.291 28.7121 145.291 25.8213ZM171.813 35.1369H176.513V16.5059H171.813V35.1369ZM174.163 9.13672C172.552 9.13672 171.316 10.4343 171.316 12.0767C171.316 13.6809 172.552 14.9784 174.163 14.9784C175.775 14.9784 177.01 13.6809 177.01 12.0767C177.01 10.4342 175.775 9.13672 174.163 9.13672ZM213.41 25.8213C213.41 31.1401 209.18 35.4517 203.962 35.4517C198.743 35.4517 194.513 31.1402 194.513 25.8213C194.513 20.5024 198.743 16.191 203.962 16.191C209.18 16.191 213.41 20.5025 213.41 25.8213ZM209.094 25.8213C209.094 22.9334 206.795 20.5901 203.962 20.5901C201.128 20.5901 198.829 22.9334 198.829 25.8213C198.829 28.7094 201.126 31.0526 203.962 31.0526C206.795 31.0526 209.094 28.7121 209.094 25.8213ZM69.5521 9.87581H51.5225V14.149H58.1967V35.1368H62.8806V14.149H69.5548V9.87581H69.5521ZM160.732 30.0343L156.55 16.5059H151.613L157.885 35.1369H163.541L169.85 16.5059H164.913L160.732 30.0343ZM220.297 19.6375V16.5059H215.586V35.1368H220.297V23.9654C220.297 21.9424 221.57 20.9487 223.554 20.9487H226.133V16.5059H223.931C222.206 16.5059 220.71 17.4229 220.297 19.6375Z" fill="white"/>
<path d="M24.3372 49C37.6129 49 48.3749 38.031 48.3749 24.5C48.3749 10.969 37.6129 0 24.3372 0C11.0616 0 0.299561 10.969 0.299561 24.5C0.299561 38.031 11.0616 49 24.3372 49Z" fill="#34E0A1"/>
<path d="M39.1839 19.7203L42.0846 16.5038H35.6522C32.4319 14.2618 28.5429 12.9561 24.337 12.9561C20.1364 12.9561 16.2582 14.2646 13.0433 16.5038H6.59473L9.49537 19.7203C7.71741 21.3737 6.60281 23.7553 6.60281 26.3996C6.60281 31.39 10.5724 35.4359 15.4686 35.4359C17.7945 35.4359 19.9135 34.5216 21.4955 33.0269L24.337 36.1805L27.1786 33.0297C28.7605 34.5244 30.8769 35.4359 33.2028 35.4359C38.0989 35.4359 42.0739 31.39 42.0739 26.3996C42.0765 23.7525 40.962 21.371 39.1839 19.7203ZM15.4712 32.515C12.1569 32.515 9.47125 29.7777 9.47125 26.3996C9.47125 23.0216 12.157 20.2842 15.4712 20.2842C18.7855 20.2842 21.4712 23.0216 21.4712 26.3996C21.4712 29.7777 18.7855 32.515 15.4712 32.515ZM24.3397 26.2217C24.3397 22.1976 21.4686 18.743 17.6789 17.2675C19.7282 16.3942 21.9762 15.9097 24.337 15.9097C26.6978 15.9097 28.9484 16.3942 30.9977 17.2675C27.2108 18.7458 24.3397 22.1977 24.3397 26.2217ZM33.2054 32.515C29.8912 32.515 27.2054 29.7777 27.2054 26.3996C27.2054 23.0216 29.8912 20.2842 33.2054 20.2842C36.5197 20.2842 39.2054 23.0216 39.2054 26.3996C39.2054 29.7777 36.5197 32.515 33.2054 32.515ZM33.2054 23.1913C31.4677 23.1913 30.0604 24.6257 30.0604 26.3969C30.0604 28.168 31.4677 29.6024 33.2054 29.6024C34.9431 29.6024 36.3505 28.168 36.3505 26.3969C36.3504 24.6285 34.9431 23.1913 33.2054 23.1913ZM18.6163 26.3996C18.6163 28.1707 17.2089 29.6052 15.4712 29.6052C13.7336 29.6052 12.3262 28.1707 12.3262 26.3996C12.3262 24.6285 13.7336 23.1941 15.4712 23.1941C17.2089 23.1913 18.6163 24.6285 18.6163 26.3996Z" fill="white"/>
</g>
<defs>
<clipPath id="clip0_465_355">
<rect width="226" height="49" fill="white" transform="translate(0.299316)"/>
</clipPath>
</defs>
</svg>
